<svg xmlns="http://www.w3.org/2000/svg" xmlns:xlink="http://www.w3.org/1999/xlink" version="1.2" width="76.2mm" height="50.8mm" viewBox="-12.7 0 63.5 50.8" stroke="none" fill="#000000" stroke-width="0.3" font-size="3.88" id="fig-8f84b6f75932499f90acbf67d4ed2c68">
<g stroke="#000000" id="fig-8f84b6f75932499f90acbf67d4ed2c68-element-1">
  <path d="M-0.82 50.02C-5.5 45.85 -9.45 42.33 -12.55 37.96c0 -0.19 0.28 -0.9 0.61 -1.56c1.91 -3.8 3.62 -6.26 7.88 -11.38l2.28 -2.74l-0.11 -1.16C-2.51 13.72 -2.15 8.24 -0.32 1.23C-0.09 -0.89 0.42 0.2 3.14 2.23C6.21 4.71 9.07 6.13 11.96 10.81l3.61 0.16c4.11 0.18 5.77 0.45 8.12 1.2l1.76 0.56c0.02 2.3 0.04 4.61 0.06 6.91c0.02 1.99 0.03 3.97 0.05 5.96c-2.05 2.05 -4.22 4.51 -6.27 6.56c2.75 4.47 10.18 6.97 16.65 7.62l2.67 0.24l1.87 2.2c2.11 2.47 3.4 3.59 7.05 6.08l2.54 1.73c0.26 0.14 1.62 0.95 -0.29 0.76l-3.76 -0.72c-5.14 -0.99 -7.52 -1.3 -9.82 -1.3c-1.83 -0 -5.46 0.24 -7.23 0.48c-0.76 0.1 -0.86 0.05 -2.74 -1.52c-5.83 -4.88 -7.79 -6.28 -11.43 -8.22l-2.06 -1.09c-4.07 4.07 -8.13 8.14 -12.2 12.2c-0.43 0.61 -1.36 -0.59 -1.36 -0.59zM12.08 38.09C9.87 36.93 7.89 35.81 5.34 34.26l-1.32 1.27c-0.69 0.66 -2.06 1.62 -2.83 2.39c-1.23 1.22 -1.55 1.7 -2.64 3.97c-1.13 2.35 -1.73 3.13 -1.72 2.23c0 -0.59 2.24 -4.98 3.08 -6.03C0.34 37.54 1.64 36.42 2.75 35.56l2.1 -1.62c-0.82 -0.75 -1.56 -1.42 -2.22 -2.15c-0.24 -0.11 -3.33 2.4 -4.41 3.59c-0.56 0.61 -1.69 2.2 -2.51 3.53c-1.38 2.23 -2.01 2.9 -2.01 2.12c0 -0.4 2.34 -4.15 3.54 -5.68c0.52 -0.66 1.66 -1.76 2.54 -2.44c0.88 -0.69 2.24 -1.63 2.46 -1.81C0.28 27.85 -0.33 25.78 -1.53 23.11l-2.74 3.34c-3.6 4.38 -4.65 5.87 -6.31 8.92l-1.38 2.54c1.17 0.96 8.08 9.41 12.11 12.02C4.41 45.81 7.57 42.6 12.08 38.09zM-1.42 47.38C0.64 44.18 5.12 37.96 7.9 36.25c-1.8 3.01 -5.87 6.47 -8.06 10.31c-0.35 0.62 -0.7 1.02 -0.91 1.02c-0.19 0 -0.34 -0.09 -0.34 -0.2zM-8.84 38.58c0 -0.4 2.19 -4.49 2.92 -5.47c1.23 -1.54 6.51 -6.88 6.69 -5.28c-3.25 2.05 -7.09 6.3 -8.42 9.74c-0.34 0.67 -0.74 1.22 -0.9 1.22c-0.16 0 -0.29 -0.09 -0.29 -0.21zm54.95 9.64c-3.23 -2.26 -5.17 -4.08 -7.41 -6.94c-0.42 -0.53 -0.51 -0.56 -4.01 -0.92c-8.07 -0.72 -15.58 -4.97 -17.65 -11.14c-3.79 -9.46 -1.57 -16.54 -10.35 -23.62c-0.75 -0.62 -2.48 -1.89 -3.84 -2.82L0.38 1.08C-1.88 9.05 -2.2 17.28 -0.76 22.8c0.97 3.7 2.72 7.34 5.4 9.69c3.93 3.44 14.63 7.18 23.73 16.08l1.07 -0.1c6.85 -0.64 8.92 -0.56 14.85 0.56c1.88 0.36 3.54 0.66 3.7 0.67c0.15 0.01 -0.7 -0.66 -1.89 -1.49zm-11.28 -3.44C22.44 39.78 19.05 38.19 15.64 34.76C11.14 29.46 8.56 23.62 5.99 17.2c-1.3 -4.86 0.93 0.57 1.62 2.3c1.61 4.02 3.42 6.81 4.81 9.38c3.91 7.22 9.21 9.97 24.51 15.97c2.54 0.99 4.05 1.72 4.05 1.88c0 0.15 -0.15 0.27 -0.34 0.26c-0.19 -0 -2.8 -1 -5.81 -2.21zM0.87 16.76C0.75 15.8 0.41 8.93 1.73 8.64c0.3 -0.05 0.62 0.4 0.92 1.05c0.58 1.24 1.09 3.2 1.23 3.64l0.41 1.68C2.83 15.97 1.73 17.32 1.31 17.26C1.08 17.29 0.95 17.11 0.87 16.76zM1.35 16.43C2.12 15.68 3.31 15.07 3.74 14.68C2.82 10.75 2.13 9.23 1.8 9.4C1.27 11.35 1.22 13.82 1.35 16.43zM4.43 7.61c0.54 -0.49 5.26 3.87 5.26 4.39c0 0.11 -0.86 0.6 -1.8 1.04c-0.69 0.32 -1.67 0.79 -1.83 0.79c-0.47 -0.44 -1.85 -5.94 -1.63 -6.22zm0.64 0.83c-0.37 -0.26 0.69 3.53 1.12 4.74c1.57 -0.45 2.8 -1.37 2.78 -1.43C8.01 10.74 5.77 8.75 5.07 8.44zm12.28 17.26c-0.49 0 -0.14 -0.59 0.95 -1.64c0.45 -0.42 0.84 -0.76 1.22 -1.02c0.98 -0.67 1.89 -0.88 3.47 -0.91l1.76 -0.04c-0.01 -0.81 0.07 -1.92 -0.15 -2.57c-0.08 0.05 -1.08 -0.28 -1.78 -0.42c-2.05 -0.44 -2.63 -0.23 -4.23 0.53c-1.53 0.73 -1.85 0.95 -1.85 0.54c0 -0.14 0.71 -0.6 1.59 -1.03c1.44 -0.7 1.72 -0.77 2.98 -0.74c0.77 0.02 1.84 0.21 2.42 0.31l1.14 0.2c0.01 -0.23 0.04 -0.66 0.06 -1.11c0.03 -0.7 0.05 -1.45 -0 -1.67c-1.65 -0.77 -3.58 -1.4 -5.11 -1.42c-1.62 -0.02 -3.09 0.01 -4.29 0.5c-0.53 0.22 -0.83 0.59 -1.25 1.03c0.68 2.83 2.39 13.32 4.6 15.35c1.93 -1.93 3.94 -4.26 5.88 -6.19c0.38 -1.33 0.13 -2.71 -0.09 -2.74c-3.82 -0.88 -6.15 1.66 -7.31 3.03zm7.41 -12.44m-1.05 -0.37m-1.96 -0.69C20.83 11.87 19.95 11.71 18.99 11.61C17.87 11.49 16.64 11.46 15.09 11.34C14.23 11.27 12.48 11.26 12.24 11.21c0.24 0.51 0.54 1.09 0.82 1.68c0.44 0.91 0.85 1.85 1.03 2.7c1.35 -0.92 2.63 -1.18 3.85 -1.29c1.44 -0.13 3.15 0.17 4.49 0.5c1.15 0.28 2.02 0.58 2.2 0.63c0.22 0.07 0.25 -0.24 0.23 -0.69c-0.02 -0.42 -0.09 -0.98 -0.09 -1.48zm2.47 22.38c-0.57 -0.15 -1.35 -0.61 -2.01 -1.19c-0.37 -0.32 -0.71 -0.68 -0.95 -1.03c-0.2 -0.3 -0.33 -0.59 -0.34 -0.85c-0.05 -0.63 0.83 0.77 1.46 1.42c0.21 0.22 0.5 0.42 0.8 0.6c0.6 0.36 1.29 0.65 1.64 0.96c-0.01 0.14 -0.23 0.24 -0.6 0.08zm-0.31 -3.62c-0.21 -0.13 -0.38 -0.22 -0.55 -0.45c-0.21 -0.27 -0.39 -0.6 -0.52 -0.92c-0.28 -0.69 -0.47 -1.32 -0.09 -1.32c0.09 0 0.25 0.39 0.4 0.77c0.1 0.26 0.2 0.52 0.26 0.65c0.17 0.32 0.56 0.72 0.88 0.88c0.15 0.77 -0.26 0.46 -0.39 0.38z"></path>
</g>

</svg>